<mxfile host="app.diagrams.net" agent="Mozilla/5.0 (Windows NT 10.0; Win64; x64) AppleWebKit/537.36 (KHTML, like Gecko) Chrome/127.0.0.0 Safari/537.36" version="24.7.6">
  <diagram name="第 1 页" id="6xUJzhNsekfpXvKq5aCd">
    <mxGraphModel dx="1050" dy="565" grid="1" gridSize="10" guides="1" tooltips="1" connect="1" arrows="1" fold="1" page="1" pageScale="1" pageWidth="827" pageHeight="1169" math="0" shadow="0">
      <root>
        <mxCell id="0" />
        <mxCell id="1" parent="0" />
        <mxCell id="Dnt0VsilZY7f7_3Wa02p-2" value="" style="rounded=0;whiteSpace=wrap;html=1;opacity=30;" vertex="1" parent="1">
          <mxGeometry x="60" y="80" width="690" height="410" as="geometry" />
        </mxCell>
        <mxCell id="Dnt0VsilZY7f7_3Wa02p-3" value="" style="ellipse;whiteSpace=wrap;html=1;aspect=fixed;" vertex="1" parent="1">
          <mxGeometry x="130" y="130" width="50" height="50" as="geometry" />
        </mxCell>
        <mxCell id="Dnt0VsilZY7f7_3Wa02p-4" value="" style="ellipse;whiteSpace=wrap;html=1;aspect=fixed;" vertex="1" parent="1">
          <mxGeometry x="420" y="130" width="50" height="50" as="geometry" />
        </mxCell>
        <mxCell id="Dnt0VsilZY7f7_3Wa02p-6" value="" style="rounded=0;whiteSpace=wrap;html=1;" vertex="1" parent="1">
          <mxGeometry x="115" y="390" width="80" height="40" as="geometry" />
        </mxCell>
        <mxCell id="Dnt0VsilZY7f7_3Wa02p-7" value="" style="rounded=0;whiteSpace=wrap;html=1;" vertex="1" parent="1">
          <mxGeometry x="260" y="390" width="80" height="40" as="geometry" />
        </mxCell>
        <mxCell id="Dnt0VsilZY7f7_3Wa02p-8" value="" style="rounded=0;whiteSpace=wrap;html=1;" vertex="1" parent="1">
          <mxGeometry x="405" y="390" width="80" height="40" as="geometry" />
        </mxCell>
        <mxCell id="Dnt0VsilZY7f7_3Wa02p-9" value="" style="rounded=0;whiteSpace=wrap;html=1;" vertex="1" parent="1">
          <mxGeometry x="550" y="390" width="80" height="40" as="geometry" />
        </mxCell>
        <mxCell id="Dnt0VsilZY7f7_3Wa02p-10" value="" style="ellipse;whiteSpace=wrap;html=1;aspect=fixed;" vertex="1" parent="1">
          <mxGeometry x="420" y="280" width="50" height="50" as="geometry" />
        </mxCell>
        <mxCell id="Dnt0VsilZY7f7_3Wa02p-11" value="" style="ellipse;whiteSpace=wrap;html=1;aspect=fixed;" vertex="1" parent="1">
          <mxGeometry x="565" y="280" width="50" height="50" as="geometry" />
        </mxCell>
        <mxCell id="Dnt0VsilZY7f7_3Wa02p-12" value="" style="ellipse;whiteSpace=wrap;html=1;" vertex="1" parent="1">
          <mxGeometry x="555" y="180" width="70" height="40" as="geometry" />
        </mxCell>
      </root>
    </mxGraphModel>
  </diagram>
</mxfile>
